HIERARCHY
ROOT Hips
{
    OFFSET 0.000000 0.000000 0.000000
    CHANNELS 6 Xposition Yposition Zposition Zrotation Xrotation Yrotation
    JOINT Spine
    {
        OFFSET -0.000000 14.517291 0.000000
        CHANNELS 3 Zrotation Xrotation Yrotation
        JOINT Spine1
        {
            OFFSET -0.000000 37.558300 0.000000
            CHANNELS 3 Zrotation Xrotation Yrotation
            JOINT Neck
            {
                OFFSET -0.000000 37.404057 3.400369
                CHANNELS 3 Zrotation Xrotation Yrotation
                JOINT Head
                {
                    OFFSET -0.000000 24.785618 -3.540803
                    CHANNELS 3 Zrotation Xrotation Yrotation
                    End Site
                    {
                        OFFSET -0.000000 35.408028 0.000000
                    }
                }
            }
            JOINT LeftShoulder
            {
                OFFSET 6.992933 33.973492 -0.192664
                CHANNELS 3 Zrotation Xrotation Yrotation
                JOINT LeftArm
                {
                    OFFSET 21.527611 0.000000 0.000000
                    CHANNELS 3 Zrotation Xrotation Yrotation
                    JOINT LeftForeArm
                    {
                        OFFSET 56.353916 0.000000 0.000000
                        CHANNELS 3 Zrotation Xrotation Yrotation
                        JOINT LeftHand
                        {
                            OFFSET 47.774071 0.000000 0.000000
                            CHANNELS 3 Zrotation Xrotation Yrotation
                            End Site
                            {
                                OFFSET 26.556021 0.000000 0.000000
                            }
                        }
                    }
                }
            }
            JOINT RightShoulder
            {
                OFFSET -7.065357 33.973492 -0.192664
                CHANNELS 3 Zrotation Xrotation Yrotation
                JOINT RightArm
                {
                    OFFSET -21.527611 0.000000 0.000000
                    CHANNELS 3 Zrotation Xrotation Yrotation
                    JOINT RightForeArm
                    {
                        OFFSET -56.353916 0.000000 0.000000
                        CHANNELS 3 Zrotation Xrotation Yrotation
                        JOINT RightHand
                        {
                            OFFSET -47.774071 0.000000 0.000000
                            CHANNELS 3 Zrotation Xrotation Yrotation
                            End Site
                            {
                                OFFSET -26.556021 0.000000 0.000000
                            }
                        }
                    }
                }
            }
        }
    }
    JOINT LeftUpLeg
    {
        OFFSET 17.704014 0.000000 0.000000
        CHANNELS 3 Zrotation Xrotation Yrotation
        JOINT LeftLeg
        {
            OFFSET -0.000000 -81.181816 0.000000
            CHANNELS 3 Zrotation Xrotation Yrotation
            JOINT LeftFoot
            {
                OFFSET -0.000000 -62.821102 0.000000
                CHANNELS 3 Zrotation Xrotation Yrotation
                JOINT LeftToeBase
                {
                    OFFSET -0.000000 -11.507608 26.556021
                    CHANNELS 3 Zrotation Xrotation Yrotation
                    End Site
                    {
                        OFFSET -0.000000 0.000000 7.081605
                    }
                }
            }
        }
    }
    JOINT RightUpLeg
    {
        OFFSET -17.704014 0.000000 0.000000
        CHANNELS 3 Zrotation Xrotation Yrotation
        JOINT RightLeg
        {
            OFFSET -0.000000 -81.181816 0.000000
            CHANNELS 3 Zrotation Xrotation Yrotation
            JOINT RightFoot
            {
                OFFSET -0.000000 -62.821102 0.000000
                CHANNELS 3 Zrotation Xrotation Yrotation
                JOINT RightToeBase
                {
                    OFFSET -0.000000 -11.507608 26.556021
                    CHANNELS 3 Zrotation Xrotation Yrotation
                    End Site
                    {
                        OFFSET -0.000000 0.000000 7.081605
                    }
                }
            }
        }
    }
}
MOTION
Frames:    12
Frame Time:    0.008333
20.555288    146.085495    48.165642    3.282560    2.762885    -56.446537    -0.976908    -3.233435    -1.368822    5.251055    -0.253573    -0.439959    20.605659    4.001292    19.126719    -14.860350    9.558303    16.754980    11.426378    2.702242    -14.595310    -6.635359    -4.500729    -21.271362    -3.352667    -2.603844    -85.750816    -3.328512    -4.949968    -25.823521    3.560733    9.412742    -16.641294    52.515865    -4.452539    27.443361    18.476715    -34.757851    114.646828    36.489422    -45.181877    45.796341    36.365906    -23.515972    26.178949    -29.030041    41.699532    3.900783    -1.290472    -13.398210    43.727020    0.000000    0.000000    0.000000    -28.992708    -7.600773    -19.568491    4.047961    33.639145    -6.995745    19.981789    -13.969605    7.044988    0.000000    0.000000    0.000000    
20.566774    146.080460    48.157795    3.290572    2.760403    -56.447605    -0.993070    -3.233697    -1.372979    5.269348    -0.269259    -0.440416    20.614803    3.989957    19.126600    -14.858242    9.580239    16.754667    11.434286    2.702565    -14.614517    -6.638602    -4.484826    -21.287203    -3.337014    -2.639056    -85.759521    -3.340039    -4.968914    -25.805168    3.562127    9.377845    -16.625086    52.441124    -4.442001    27.485250    18.501476    -34.761642    114.684692    36.485752    -45.230831    45.801064    36.359653    -23.525946    26.188662    -29.020306    41.695560    3.907398    -1.288249    -13.391978    43.718979    0.000000    0.000000    0.000000    -29.005384    -7.615744    -19.564514    4.061606    33.655834    -6.996843    19.969212    -13.990624    7.033815    0.000000    0.000000    0.000000    
20.573025    146.075882    48.149525    3.289719    2.760393    -56.446747    -0.999369    -3.230162    -1.377650    5.287156    -0.282783    -0.441328    20.615419    3.977914    19.119495    -14.859143    9.601181    16.747608    11.438689    2.700954    -14.625566    -6.640994    -4.450556    -21.303827    -3.314011    -2.690257    -85.778297    -3.367010    -4.992979    -25.817976    3.554027    9.353691    -16.611414    52.377056    -4.404421    27.544600    18.467316    -34.824425    114.700142    36.541164    -45.221943    45.834843    36.365322    -23.531553    26.215590    -29.003866    41.717648    3.864880    -1.285273    -13.387023    43.723675    0.000000    0.000000    0.000000    -29.002823    -7.618568    -19.574268    4.043496    33.657444    -6.982006    19.964565    -13.994687    7.059511    0.000000    0.000000    0.000000    
20.577812    146.071411    48.139744    3.288771    2.767890    -56.438087    -0.997145    -3.235197    -1.384455    5.294595    -0.293601    -0.443094    20.613064    3.969784    19.111176    -14.837952    9.606126    16.739391    11.454450    2.714680    -14.645108    -6.649380    -4.442364    -21.323286    -3.293028    -2.729416    -85.794533    -3.383968    -5.009596    -25.819660    3.556479    9.326859    -16.585136    52.311005    -4.408325    27.588665    18.446131    -34.850742    114.718391    36.602646    -45.192146    45.884342    36.375450    -23.543180    26.220186    -29.005594    41.717171    3.870526    -1.287628    -13.384279    43.730560    0.000000    0.000000    0.000000    -28.998711    -7.619043    -19.583139    4.053632    33.662140    -6.977472    19.954224    -14.009965    7.049645    0.000000    0.000000    0.000000    
20.583441    146.067932    48.133659    3.285238    2.766927    -56.427658    -0.999881    -3.237125    -1.386880    5.307704    -0.292678    -0.443807    20.611902    3.952376    19.105055    -14.836945    9.613944    16.730907    11.457595    2.709673    -14.667818    -6.650478    -4.448344    -21.333712    -3.295374    -2.737200    -85.825470    -3.394432    -5.018919    -25.811211    3.548945    9.316009    -16.587456    52.261108    -4.402802    27.675777    18.404343    -34.893204    114.720421    36.686192    -45.138039    45.929317    36.374630    -23.550146    26.236454    -28.986864    41.728821    3.859946    -1.293195    -13.387280    43.711525    0.000000    0.000000    0.000000    -29.002724    -7.612826    -19.601831    4.050875    33.668285    -6.957208    19.960304    -14.018440    7.049264    0.000000    0.000000    0.000000    
20.590607    146.064896    48.124397    3.283917    2.769672    -56.415981    -0.990867    -3.237993    -1.387331    5.295801    -0.299104    -0.443832    20.611040    3.930422    19.097965    -14.809619    9.616513    16.721195    11.475670    2.719332    -14.682227    -6.652857    -4.408347    -21.360533    -3.251650    -2.827097    -85.858124    -3.450164    -5.058354    -25.768602    3.550477    9.291784    -16.567322    52.207733    -4.417373    27.729387    18.368725    -34.923519    114.736984    36.655010    -45.141392    45.919945    36.376492    -23.562685    26.247894    -28.973877    41.736473    3.848705    -1.288035    -13.374654    43.705345    0.000000    0.000000    0.000000    -29.000666    -7.613626    -19.626694    4.033772    33.675903    -6.962578    19.971663    -14.009700    7.090223    0.000000    0.000000    0.000000    
20.593197    146.066055    48.112694    3.282631    2.777500    -56.400692    -0.990424    -3.252736    -1.387648    5.303060    -0.288247    -0.444413    20.617733    3.897119    19.093504    -14.804104    9.634655    16.712120    11.483971    2.722288    -14.692045    -6.651005    -4.392689    -21.390518    -3.227704    -2.872817    -85.887253    -3.466554    -5.080668    -25.738796    3.541164    9.261020    -16.545015    52.165195    -4.468126    27.782930    18.364386    -34.910702    114.755531    36.733421    -45.092522    45.969875    36.386436    -23.569584    26.249157    -28.974051    41.720665    3.850215    -1.286008    -13.356889    43.695965    0.000000    0.000000    0.000000    -28.991632    -7.613972    -19.636860    4.034263    33.680134    -6.967869    20.044641    -13.979753    7.075825    0.000000    0.000000    0.000000    
20.596481    146.067734    48.098816    3.277453    2.785505    -56.385323    -0.980346    -3.246243    -1.387373    5.292787    -0.307324    -0.443621    20.638338    3.892221    19.078987    -14.811204    9.627477    16.692152    11.502056    2.742328    -14.695369    -6.654074    -4.386438    -21.028637    -3.336007    -2.706930    -86.019394    -3.290462    -5.053102    -26.064993    3.548769    9.252448    -16.529522    52.118187    -4.511344    27.850897    18.345566    -34.905952    114.768234    36.770912    -45.057060    45.974003    36.395851    -23.579269    26.253633    -28.956898    41.722805    3.820897    -1.300916    -13.356049    43.689880    0.000000    0.000000    0.000000    -28.979082    -7.610279    -19.640690    4.035717    33.683632    -6.980505    19.985353    -14.005752    7.092027    0.000000    0.000000    0.000000    
20.597132    146.069763    48.087097    3.269182    2.783462    -56.366055    -0.984888    -3.239593    -1.385185    5.288680    -0.316565    -0.442463    20.644516    3.876984    19.060207    -14.788703    9.618022    16.668760    11.515105    2.741441    -14.720343    -6.652215    -4.365771    -21.454702    -3.217450    -2.944550    -85.948425    -3.457273    -5.147325    -25.760628    3.552499    9.221454    -16.511957    52.063797    -4.556889    27.900469    18.339575    -34.899296    114.777313    36.763691    -45.056824    45.950966    36.395603    -23.578312    26.244781    -28.963427    41.704853    3.819806    -1.291053    -13.337723    43.693138    0.000000    0.000000    0.000000    -28.973085    -7.597839    -19.644672    4.037445    33.689384    -6.978930    19.987585    -14.014993    7.063620    0.000000    0.000000    0.000000    
20.598763    146.073090    48.070091    3.261394    2.782043    -56.348518    -0.993611    -3.221277    -1.385054    5.289642    -0.341584    -0.441214    20.642704    3.877534    19.044661    -14.758924    9.588944    16.650520    11.522054    2.753861    -14.731671    -6.651406    -4.347990    -21.483208    -3.188105    -2.992054    -85.977592    -3.493345    -5.159358    -25.800730    3.551349    9.193387    -16.474897    52.024300    -4.629040    27.939545    18.343691    -34.869335    114.784393    36.805408    -45.011726    45.996677    36.395828    -23.580603    26.248304    -28.942314    41.699051    3.791662    -1.307069    -13.320649    43.689056    0.000000    0.000000    0.000000    -28.962650    -7.590944    -19.631744    4.037387    33.696186    -6.988095    20.047228    -13.993714    7.053831    0.000000    0.000000    0.000000    
20.600445    146.077209    48.053162    3.253517    2.784260    -56.329205    -0.993790    -3.208431    -1.379759    5.277803    -0.358392    -0.438686    20.651297    3.859027    19.026720    -14.729957    9.573150    16.626629    11.542385    2.750446    -14.745865    -6.659407    -4.337077    -21.506203    -3.170388    -3.023711    -85.997375    -3.529342    -5.165885    -25.845713    3.549829    9.150487    -16.446257    51.986633    -4.693026    27.979610    18.361052    -34.838383    114.786713    36.851612    -44.976044    46.050652    36.394295    -23.585350    26.255375    -28.909822    41.690266    3.756934    -1.299146    -13.295424    43.684013    0.000000    0.000000    0.000000    -28.950327    -7.578829    -19.613438    4.052812    33.691593    -7.020044    19.983644    -14.027388    7.062146    0.000000    0.000000    0.000000    
20.600439    146.081543    48.035194    3.247358    2.788067    -56.306263    -0.995429    -3.203051    -1.378333    5.264823    -0.372403    -0.437534    20.668781    3.870147    19.002113    -14.724140    9.526098    16.594938    11.564444    2.759403    -14.755936    -6.667042    -4.334179    -21.538443    -3.144582    -3.051255    -86.010864    -3.534207    -5.168561    -25.863426    3.550549    9.117655    -16.409763    51.941338    -4.718425    28.021797    18.338375    -34.873394    114.783936    36.859486    -44.977154    46.042274    36.395954    -23.595167    26.245752    -28.893394    41.683167    3.744961    -1.306131    -13.279285    43.666206    0.000000    0.000000    0.000000    -28.938055    -7.566571    -19.594891    4.080690    33.689312    -7.055070    19.967798    -14.040885    7.033173    0.000000    0.000000    0.000000    
